<svg xmlns="http://www.w3.org/2000/svg" xmlns:xlink="http://www.w3.org/1999/xlink" width="36.858" height="36.506" viewBox="0 0 36.858 36.506">
  <defs>
    <linearGradient id="linear-gradient" x1="0.5" x2="0.5" y2="1" gradientUnits="objectBoundingBox">
      <stop offset="0" stop-color="#2268fb"/>
      <stop offset="1" stop-color="#30dde5"/>
    </linearGradient>
    <filter id="Subtraction_2" x="0" y="0" width="36.858" height="36.506" filterUnits="userSpaceOnUse">
      <feOffset dy="3" input="SourceAlpha"/>
      <feGaussianBlur stdDeviation="3" result="blur"/>
      <feFlood flood-color="#2594d4" flood-opacity="0.22"/>
      <feComposite operator="in" in2="blur"/>
      <feComposite in="SourceGraphic"/>
    </filter>
  </defs>
  <g id="Group_2030" data-name="Group 2030" transform="translate(9.507 6.5)">
    <g transform="matrix(1, 0, 0, 1, -9.51, -6.5)" filter="url(#Subtraction_2)">
      <path id="Subtraction_2-2" data-name="Subtraction 2" d="M9.046,17.506H8.72a9.267,9.267,0,0,1-3.466-.751,8.8,8.8,0,0,1-2.838-2.02A8.707,8.707,0,0,1,.55,11.8,9.006,9.006,0,0,1,0,8.337,8.259,8.259,0,0,1,.762,5.061,8.613,8.613,0,0,1,2.819,2.338,9.053,9.053,0,0,1,5.628.585,9,9,0,0,1,8.881,0H9.2A9.125,9.125,0,0,1,12.21.594a8.886,8.886,0,0,1,2.6,1.571,8.7,8.7,0,0,1,1.924,2.321,8.6,8.6,0,0,1,.98,2.84L11.2,7.363A2.608,2.608,0,0,0,9.1,6.221H9A2.411,2.411,0,0,0,6.514,8.636a2.491,2.491,0,0,0,.691,1.858,2.553,2.553,0,0,0,1.842.8h.085a2.14,2.14,0,0,0,1.356-.45,3.2,3.2,0,0,0,.935-1.35l3.163-.02v.8h-.332v.363h.154v.194h.182v.14h.431v-.14h.133v-.194h.166v-.363h-.347v-.8l.992-.006L16,10.991h-.428v.438h.186v.234h.219v.169h.52v-.169h.16v-.234h.2v-.438h-.39l-.032-1.53L17.8,9.452a9.584,9.584,0,0,1-.93,3.287,8.622,8.622,0,0,1-2.018,2.606,8.533,8.533,0,0,1-2.676,1.62,8.968,8.968,0,0,1-3.13.541Z" transform="translate(9.51 6.5)" stroke="rgba(0,0,0,0)" stroke-miterlimit="10" stroke-width="1" fill="url(#linear-gradient)"/>
    </g>
  </g>
</svg>
