<svg id="Artboard_27" data-name="Artboard – 27" xmlns="http://www.w3.org/2000/svg" xmlns:xlink="http://www.w3.org/1999/xlink" width="18" height="18" viewBox="0 0 18 18">
  <defs>
    <clipPath id="clip-path">
      <rect id="Rectangle_3513" data-name="Rectangle 3513" width="18" height="18"/>
    </clipPath>
    <clipPath id="clip-path-2">
      <rect id="Rectangle_3512" data-name="Rectangle 3512" width="18" height="18" fill="none"/>
    </clipPath>
    <linearGradient id="linear-gradient" x1="0.5" x2="0.5" y2="1" gradientUnits="objectBoundingBox">
      <stop offset="0" stop-color="#2268fb"/>
      <stop offset="1" stop-color="#30dde5"/>
    </linearGradient>
  </defs>
  <g id="Artboard_27-2" data-name="Artboard – 27" clip-path="url(#clip-path)">
    <g id="icon_setting" clip-path="url(#clip-path-2)">
      <path id="Path_108" data-name="Path 108" d="M14.963,5.85,16.2,3.487,14.625,1.912,12.263,3.15a4.03,4.03,0,0,0-1.238-.45l-.9-2.7H7.875l-.9,2.587a4.7,4.7,0,0,0-1.125.45L3.487,1.8,1.8,3.487,3.038,5.85a4.7,4.7,0,0,0-.45,1.125L0,7.875v2.25l2.587.9c.112.45.338.787.45,1.238L1.8,14.625,3.375,16.2l2.362-1.237a4.03,4.03,0,0,0,1.238.45L7.875,18h2.25l.9-2.588c.45-.113.787-.337,1.238-.45L14.625,16.2,16.2,14.625l-1.237-2.362a4.03,4.03,0,0,0,.45-1.238l2.588-.9V7.875l-2.588-.9A4.7,4.7,0,0,0,14.963,5.85ZM9,12.375A3.315,3.315,0,0,1,5.625,9,3.315,3.315,0,0,1,9,5.625,3.315,3.315,0,0,1,12.375,9,3.315,3.315,0,0,1,9,12.375Z" fill="url(#linear-gradient)"/>
    </g>
  </g>
</svg>
