<svg xmlns="http://www.w3.org/2000/svg" xmlns:xlink="http://www.w3.org/1999/xlink" width="18" height="18" viewBox="0 0 18 18">
  <defs>
    <clipPath id="clip-path">
      <rect id="Rectangle_3529" data-name="Rectangle 3529" width="18" height="18"/>
    </clipPath>
    <linearGradient id="linear-gradient" x1="0.5" x2="0.5" y2="1" gradientUnits="objectBoundingBox">
      <stop offset="0" stop-color="#2268fb"/>
      <stop offset="1" stop-color="#30dde5"/>
    </linearGradient>
  </defs>
  <g id="dsfsfsxs" opacity="0.999" clip-path="url(#clip-path)">
    <g id="Group_3397" data-name="Group 3397" transform="translate(0 1.234)">
      <path id="Path_2647" data-name="Path 2647" d="M371.526,912.186a4.709,4.709,0,0,0-8.732,3.5,4.66,4.66,0,0,0,.43.892h5.38l1.731-3.869,1.919,6.5,1.316-2.631h6.256a4.627,4.627,0,0,0,.42-.862,4.71,4.71,0,0,0-8.721-3.538Z" transform="translate(-362.526 -909.417)" fill="url(#linear-gradient)"/>
      <path id="Path_2648" data-name="Path 2648" d="M374.758,920.586l-1.911,3.816-1.886-6.39-1.15,2.57H364.5a4.619,4.619,0,0,0,.453.445l7.183,7.136a.229.229,0,0,0,.321,0l7.451-7.4h0c.054-.055.1-.116.154-.173Z" transform="translate(-363.286 -912.725)" fill="url(#linear-gradient)"/>
      <path id="Path_2649" data-name="Path 2649" d="M372.691,921.279l-1.919-6.5-1.731,3.869h-5.38a4.775,4.775,0,0,0,.444.615l.073.077h5.311l1.15-2.57,1.886,6.391,1.911-3.817h5.339a4.773,4.773,0,0,0,.509-.692h-6.276Z" transform="translate(-362.962 -911.479)" fill="#fbfbfb"/>
    </g>
  </g>
</svg>
