<svg id="Artboard_24" data-name="Artboard – 24" xmlns="http://www.w3.org/2000/svg" xmlns:xlink="http://www.w3.org/1999/xlink" width="18" height="18" viewBox="0 0 18 18">
  <defs>
    <linearGradient id="linear-gradient" x1="0.5" x2="0.5" y2="1" gradientUnits="objectBoundingBox">
      <stop offset="0" stop-color="#2268fb"/>
      <stop offset="1" stop-color="#30dde5"/>
    </linearGradient>
    <clipPath id="clip-path">
      <rect id="Rectangle_3509" data-name="Rectangle 3509" width="18" height="18" fill="url(#linear-gradient)"/>
    </clipPath>
    <clipPath id="clip-path-2">
      <rect id="Rectangle_3508" data-name="Rectangle 3508" width="17" height="17" fill="none"/>
    </clipPath>
  </defs>
  <g id="Artboard_24-2" data-name="Artboard – 24" clip-path="url(#clip-path)">
    <g id="Phone" transform="translate(1)" clip-path="url(#clip-path-2)">
      <rect id="Rectangle_320" data-name="Rectangle 320" width="17" height="17" fill="none"/>
      <path id="Path_110" data-name="Path 110" d="M9.866,12.143l1.821-1.67a.558.558,0,0,1,.455-.152l.3.152,4.25,1.973c.3.152.3.3.3.607a3.848,3.848,0,0,1-1.214,2.732A4.348,4.348,0,0,1,12.6,17a9.248,9.248,0,0,1-4.25-1.062A19.9,19.9,0,0,1,4.1,12.9,25.853,25.853,0,0,1,1.821,9.563,20.981,20.981,0,0,1,.3,6.223,9.341,9.341,0,0,1,0,3.339,3.989,3.989,0,0,1,1.063,1.063,4.616,4.616,0,0,1,3.946,0a.789.789,0,0,1,.607.3L6.83,4.554a.53.53,0,0,0,.152.3.558.558,0,0,1-.152.455L4.857,7.134a.678.678,0,0,0,0,.759,14.5,14.5,0,0,0,1.821,2.429A15.326,15.326,0,0,0,9.107,12.3C9.411,12.446,9.714,12.446,9.866,12.143Z" fill="url(#linear-gradient)"/>
    </g>
  </g>
</svg>
