<svg xmlns="http://www.w3.org/2000/svg" xmlns:xlink="http://www.w3.org/1999/xlink" width="14" height="14" viewBox="0 0 14 14">
  <defs>
    <clipPath id="clip-path">
      <rect width="14" height="14" fill="none"/>
    </clipPath>
    <linearGradient id="linear-gradient" x1="0.5" x2="0.5" y2="1" gradientUnits="objectBoundingBox">
      <stop offset="0" stop-color="#2268fb"/>
      <stop offset="1" stop-color="#30dde5"/>
    </linearGradient>
  </defs>
  <g id="Quote" clip-path="url(#clip-path)">
    <path id="Path_19" data-name="Path 19" d="M5.162,7.265V12.8H0V8.389A11.344,11.344,0,0,1,.875,3.2,7.211,7.211,0,0,1,4.463,0L5.688,1.9A4.582,4.582,0,0,0,3.5,3.719a6.473,6.473,0,0,0-.788,3.546Zm8.4,0V12.8H8.4V8.389A11.107,11.107,0,0,1,9.275,3.2,7.211,7.211,0,0,1,12.863,0L14,1.9a4.582,4.582,0,0,0-2.187,1.816,8.544,8.544,0,0,0-.787,3.546Z" transform="translate(0 1)" fill="url(#linear-gradient)"/>
    <rect id="Rectangle_1451" data-name="Rectangle 1451" width="14" height="14" fill="none"/>
  </g>
</svg>
