<svg id="Artboard_23" data-name="Artboard – 23" xmlns="http://www.w3.org/2000/svg" xmlns:xlink="http://www.w3.org/1999/xlink" width="18" height="18" viewBox="0 0 18 18">
  <defs>
    <clipPath id="clip-path">
      <rect id="Rectangle_3507" data-name="Rectangle 3507" width="18" height="18"/>
    </clipPath>
    <clipPath id="clip-path-2">
      <rect id="Rectangle_3506" data-name="Rectangle 3506" width="18" height="18" fill="none"/>
    </clipPath>
    <linearGradient id="linear-gradient" x1="0.5" x2="0.5" y2="1" gradientUnits="objectBoundingBox">
      <stop offset="0" stop-color="#2268fb"/>
      <stop offset="1" stop-color="#30dde5"/>
    </linearGradient>
  </defs>
  <g id="Artboard_23-2" data-name="Artboard – 23" clip-path="url(#clip-path)">
    <g id="Help" clip-path="url(#clip-path-2)">
      <rect id="Rectangle_481" data-name="Rectangle 481" width="18" height="18" fill="none"/>
      <path id="Path_146" data-name="Path 146" d="M9,0a9,9,0,1,0,9,9A9,9,0,0,0,9,0ZM8.91,14.94a1.26,1.26,0,1,1,1.26-1.26,1.23,1.23,0,0,1-1.26,1.26Zm2.43-7.02L10.35,9a1.1,1.1,0,0,0-.36.81,1.094,1.094,0,0,1-1.08,1.08A1.04,1.04,0,0,1,7.83,9.81a2.008,2.008,0,0,1,.72-1.62l.81-.99a2.043,2.043,0,0,0,.63-1.26A.944.944,0,0,0,9,4.95a1.059,1.059,0,0,0-1.08.81,1.175,1.175,0,0,1-1.08.63.944.944,0,0,1-.99-.99.979.979,0,0,1,.09-.45A3,3,0,0,1,9,3.06a2.916,2.916,0,0,1,3.15,2.88,2.953,2.953,0,0,1-.81,1.98Z" fill="url(#linear-gradient)"/>
    </g>
  </g>
</svg>
