<svg id="Fhgdf" xmlns="http://www.w3.org/2000/svg" xmlns:xlink="http://www.w3.org/1999/xlink" width="18" height="18" viewBox="0 0 18 18">
  <defs>
    <clipPath id="clip-path">
      <rect id="Rectangle_3531" data-name="Rectangle 3531" width="18" height="18"/>
    </clipPath>
    <linearGradient id="linear-gradient" x1="0.5" x2="0.5" y2="1" gradientUnits="objectBoundingBox">
      <stop offset="0" stop-color="#2268fb"/>
      <stop offset="1" stop-color="#30dde5"/>
    </linearGradient>
  </defs>
  <g id="Fhgdf-2" data-name="Fhgdf" clip-path="url(#clip-path)">
    <g id="Promos" transform="translate(-1 -1)">
      <rect id="rectangle" width="21" height="21" fill="none"/>
      <path id="path" d="M4.991,6.273A1.282,1.282,0,1,1,6.273,4.991,1.282,1.282,0,0,1,4.991,6.273M9.691,2H2V9.692A1.71,1.71,0,0,0,2.5,10.9l7.7,7.69a1.708,1.708,0,0,0,2.417,0l5.978-5.979a1.707,1.707,0,0,0,0-2.419L10.9,2.5A1.716,1.716,0,0,0,9.691,2" transform="translate(-0.291 -0.291)" fill-rule="evenodd" fill="url(#linear-gradient)"/>
    </g>
  </g>
</svg>
