<svg xmlns="http://www.w3.org/2000/svg" xmlns:xlink="http://www.w3.org/1999/xlink" width="22.754" height="26.927" viewBox="0 0 22.754 26.927">
  <defs>
    <linearGradient id="linear-gradient" x1="0.5" x2="0.5" y2="1" gradientUnits="objectBoundingBox">
      <stop offset="0" stop-color="#2268fb"/>
      <stop offset="1" stop-color="#30dde5"/>
    </linearGradient>
  </defs>
  <g id="Group_3989" data-name="Group 3989" transform="translate(-135.124 -231.152)">
    <path id="Path_6145" data-name="Path 6145" d="M157.248,245.2a11.528,11.528,0,0,0-2.64-6.175,11.649,11.649,0,0,1,.84-.9,1.641,1.641,0,0,0,.465.342c.349.109.58-.2.781-.454.227-.283.5-.633.342-1-.184-.429-.79-.8-1.135-1.083a5.606,5.606,0,0,0-1.342-.974c-.439-.148-.745.153-1,.473-.2.252-.443.46-.3.787a1.5,1.5,0,0,0,.319.437c-.234.252-.468.506-.694.765a10.4,10.4,0,0,0-4.214-1.63c-.022-.251-.034-.5-.034-.749a1.792,1.792,0,0,0,.58-.071c.487-.177.495-.4.524-.951.032-.618.121-1.665-.437-2.078-.653-.484-2.156-.234-2.9-.237-1.464.047-3.515-.4-3.6,1.521-.017.387-.141,1.274.211,1.579a1.727,1.727,0,0,0,.98.284c0,.275,0,.55.016.827a.284.284,0,0,0,.017.066,11.1,11.1,0,0,0-7.618,6.663c-1.66,4.173-.615,9.581,3,12.456a9.8,9.8,0,0,0,4.579,2.28,13.016,13.016,0,0,0,7.973-1.04,11.584,11.584,0,0,0,4.13-3.936A11.952,11.952,0,0,0,157.248,245.2Zm-2.8-9.631c.282.044.814.61,1.032.778a5.1,5.1,0,0,1,.8.693c.211.277.034.614-.23.82a13.845,13.845,0,0,1-1.174-.926,5.265,5.265,0,0,1-1.038-.928C154,235.789,154.249,235.537,154.452,235.569Zm-.424,1.466c.19.143.382.275.537.4l.417.327c-.262.269-.53.536-.771.824-.184-.193-.368-.385-.568-.567-.094-.085-.2-.158-.3-.238C153.565,237.523,153.8,237.28,154.028,237.034Zm-10.635-3.044a2.23,2.23,0,0,1,0-.768c.125-.661.489-.746,1.172-.854a15.145,15.145,0,0,1,1.837-.077c.55,0,1.114-.024,1.663.026.589.054.857.026,1.038.624a2.5,2.5,0,0,1,.047,1.073c-.208.554-.659.38-1.26.4-.661.017-1.321.043-1.982.048C145.224,234.467,143.636,234.681,143.393,233.99Zm1.192,1.106c.433-.009.85-.043,1.117-.043.657,0,1.315-.026,1.972-.044.112,0,.238,0,.373.01,0,.229.01.457.028.687-.446-.054-.89-.092-1.327-.1a11.808,11.808,0,0,0-2.149.244C144.587,235.6,144.586,235.348,144.585,235.1Zm11.653,15.512a9.614,9.614,0,0,1-3.665,4.612A10.4,10.4,0,0,1,146,256.947a8.849,8.849,0,0,1-5.189-1.578,10.44,10.44,0,0,1-4.322-11,10.643,10.643,0,0,1,10.263-8.175,9.775,9.775,0,0,1,9.673,7.638A13.5,13.5,0,0,1,156.238,250.609Z" stroke="#4ebce9" stroke-width="1" fill="url(#linear-gradient)"/>
    <path id="Path_6146" data-name="Path 6146" d="M154.4,247.849a.329.329,0,0,0-.03-.015.285.285,0,0,0-.03-.031,9.21,9.21,0,0,0-10.911.087,9.6,9.6,0,0,0-3.3,10.123c.963,3.448,5.552,6.247,9.007,6.037a7.471,7.471,0,0,0,3.322-.829,14.279,14.279,0,0,0,4.107-3.992A8.431,8.431,0,0,0,154.4,247.849Zm2.8,5.331a8.157,8.157,0,0,1-2.249,7.078,8.63,8.63,0,0,1-4.211,2.939,7.7,7.7,0,0,1-5.565-.664c-1.961-1.095-4.142-2.871-4.584-5.18a9.35,9.35,0,0,1,1.326-7.056,8.653,8.653,0,0,1,12.106-2A8.244,8.244,0,0,1,157.2,253.18Z" transform="translate(-2.383 -8.301)" stroke="#4ebce9" stroke-width="1" fill="url(#linear-gradient)"/>
    <path id="Path_6147" data-name="Path 6147" d="M163.222,256.017l-3.391,3.437a1.162,1.162,0,0,0-1.5-.046,1.314,1.314,0,1,0,1.645,2.042,1.2,1.2,0,0,0,.23-1.536l3.433-3.479C163.908,256.164,163.49,255.746,163.222,256.017ZM158.6,261c-.261-.2-.2-.738-.035-.988a.609.609,0,0,1,.992-.013.116.116,0,0,1,.046.06C160.2,260.761,159.275,261.5,158.6,261Z" transform="translate(-12.773 -13.985)" stroke="#4ebce9" stroke-width="1" fill="url(#linear-gradient)"/>
    <path id="Path_6148" data-name="Path 6148" d="M148.392,252.488a7.467,7.467,0,0,0-3.517,5.144c-.089.37.482.528.57.157a6.889,6.889,0,0,1,3.245-4.79C149.027,252.82,148.728,252.309,148.392,252.488Z" transform="translate(-5.311 -11.982)" stroke="#4ebce9" stroke-width="1" fill="url(#linear-gradient)"/>
    <path id="Path_6149" data-name="Path 6149" d="M144.823,267.91a.3.3,0,0,0,0,.591A.3.3,0,0,0,144.823,267.91Z" transform="translate(-5.123 -20.883)" stroke="#4ebce9" stroke-width="1" fill="url(#linear-gradient)"/>
    <path id="Path_6150" data-name="Path 6150" d="M160.735,235.072l-.062-.849c-.028-.377-.619-.38-.591,0l.062.849C160.171,235.449,160.763,235.452,160.735,235.072Z" transform="translate(-14.072 -1.324)" stroke="#4ebce9" stroke-width="1" fill="url(#linear-gradient)"/>
    <path id="Path_6151" data-name="Path 6151" d="M164.376,234.747q-.011-.345-.023-.691c-.013-.38-.6-.381-.591,0,.008.23.016.461.023.691C163.8,235.127,164.389,235.129,164.376,234.747Z" transform="translate(-16.191 -1.227)" stroke="#4ebce9" stroke-width="1" fill="url(#linear-gradient)"/>
    <path id="Path_6152" data-name="Path 6152" d="M156.747,235.188a3.569,3.569,0,0,1-.027-.761c.023-.38-.568-.378-.591,0a4.294,4.294,0,0,0,.048.918C156.234,235.72,156.8,235.561,156.747,235.188Z" transform="translate(-11.792 -1.441)" stroke="#4ebce9" stroke-width="1" fill="url(#linear-gradient)"/>
  </g>
</svg>
