<svg xmlns="http://www.w3.org/2000/svg" xmlns:xlink="http://www.w3.org/1999/xlink" width="36.585" height="21.828" viewBox="0 0 36.585 21.828">
  <defs>
    <linearGradient id="linear-gradient" x1="0.5" x2="0.5" y2="1" gradientUnits="objectBoundingBox">
      <stop offset="0" stop-color="#2268fb"/>
      <stop offset="1" stop-color="#30dde5"/>
    </linearGradient>
  </defs>
  <g id="Component_3_2" data-name="Component 3 – 2" transform="translate(0 0)">
    <g id="Group_224" data-name="Group 224">
      <path id="Path_382" data-name="Path 382" d="M358.056,235.311a6.578,6.578,0,0,0-3.5.819,11.315,11.315,0,0,1,.552,7.291c3.072-2.712,4.107-5.373,4.019-7.1C359.085,235.505,358.777,235.4,358.056,235.311Z" transform="translate(-322.546 -228.503)" fill="url(#linear-gradient)"/>
      <path id="Path_383" data-name="Path 383" d="M333.585,239.591a9.073,9.073,0,0,1-3.7-2.271c-1.335-1.115-3.325-1.084-4.278-1.107-1.647-1.788-2.189-3.847-2.652-3.95-.513-.113-2.522,1.335-2.434,1.955.081.57,2.718,3.17,3.282,3.739-.022,1.239-.3,4.1,1.745,6.445,3.5,4.026,6.813,4.166,11.463,4.316C334.674,246.706,333.5,242.914,333.585,239.591Z" transform="translate(-320.522 -228.322)" fill="url(#linear-gradient)"/>
      <g id="Group_223" data-name="Group 223" transform="translate(14.1)">
        <path id="Path_384" data-name="Path 384" d="M350.426,233.237c-1.352-.482-3.152-.166-5.421,1.383.2-3.066,3.114-4.924,3.242-5.013a.841.841,0,1,0-.953-1.385,8.712,8.712,0,0,0-3.471,6.241c-2.206-1.442-3.958-1.7-5.273-1.2-5.7,2.209-3.2,18.862,5.982,16.383C353.755,252.143,356.232,235.311,350.426,233.237Zm-.84,11.786c-.229-3.407,1.674-3.48.311-8.563C352.536,236.724,352.872,241.853,349.586,245.023Z" transform="translate(-335.514 -228.074)" fill="url(#linear-gradient)"/>
      </g>
    </g>
  </g>
</svg>
