<svg xmlns="http://www.w3.org/2000/svg" width="15.401" height="18.39" viewBox="0 0 15.401 18.39">
  <g id="Group_3972" data-name="Group 3972" transform="translate(-135.641 -231.639)">
    <path id="Path_6145" data-name="Path 6145" d="M150.965,241.257a8.176,8.176,0,0,0-1.872-4.379,8.26,8.26,0,0,1,.6-.638,1.164,1.164,0,0,0,.33.243c.248.077.411-.144.554-.322.161-.2.355-.449.243-.711-.13-.3-.56-.564-.805-.768a3.976,3.976,0,0,0-.952-.691c-.311-.105-.528.108-.709.335-.143.179-.314.326-.212.558a1.065,1.065,0,0,0,.226.31c-.166.179-.332.359-.492.543a7.377,7.377,0,0,0-2.989-1.156c-.015-.178-.024-.354-.024-.531a1.271,1.271,0,0,0,.411-.05c.346-.125.351-.287.371-.675.023-.438.086-1.181-.31-1.474-.463-.343-1.529-.166-2.058-.168-1.038.033-2.493-.286-2.553,1.079-.012.275-.1.9.15,1.12a1.224,1.224,0,0,0,.7.2c0,.2,0,.39.011.586a.2.2,0,0,0,.012.047,7.871,7.871,0,0,0-3.273,13.559,6.952,6.952,0,0,0,3.247,1.617,9.231,9.231,0,0,0,5.655-.738,8.216,8.216,0,0,0,2.929-2.791A8.477,8.477,0,0,0,150.965,241.257Zm-1.983-6.831c.2.031.577.432.732.552a3.615,3.615,0,0,1,.57.492c.15.2.024.435-.163.582a9.819,9.819,0,0,1-.833-.657,3.734,3.734,0,0,1-.736-.658C148.661,234.582,148.838,234.4,148.982,234.426Zm-.3,1.04c.135.1.271.195.381.282l.3.232c-.186.191-.376.38-.547.584-.13-.137-.261-.273-.4-.4-.067-.06-.141-.112-.211-.169C148.353,235.812,148.518,235.64,148.681,235.465Zm-7.542-2.159a1.581,1.581,0,0,1,0-.544c.088-.469.347-.529.831-.605a10.738,10.738,0,0,1,1.3-.054c.39,0,.79-.017,1.179.019.418.038.608.019.736.443a1.775,1.775,0,0,1,.033.761c-.147.393-.468.27-.894.281-.468.012-.937.031-1.406.034C142.438,233.645,141.311,233.8,141.139,233.307Zm.845.785c.307-.006.6-.03.792-.031.466,0,.932-.018,1.4-.031.079,0,.169,0,.264.007,0,.162.007.324.02.487-.316-.038-.632-.066-.941-.072a8.375,8.375,0,0,0-1.524.173C141.985,234.447,141.985,234.269,141.984,234.091Zm8.265,11a6.819,6.819,0,0,1-2.6,3.271,7.373,7.373,0,0,1-4.665,1.224,6.276,6.276,0,0,1-3.68-1.119,7.4,7.4,0,0,1-3.065-7.8,7.548,7.548,0,0,1,7.279-5.8,6.933,6.933,0,0,1,6.861,5.417A9.571,9.571,0,0,1,150.249,245.093Z" transform="translate(0 0)" fill="#9ca5c6"/>
    <path id="Path_6146" data-name="Path 6146" d="M150.149,247.328a.23.23,0,0,0-.021-.011.2.2,0,0,0-.021-.022,6.532,6.532,0,0,0-7.738.062,6.806,6.806,0,0,0-2.341,7.179c.683,2.446,3.938,4.431,6.388,4.282a5.3,5.3,0,0,0,2.356-.588,10.126,10.126,0,0,0,2.912-2.831A5.979,5.979,0,0,0,150.149,247.328Zm1.986,3.781a5.785,5.785,0,0,1-1.595,5.02,6.12,6.12,0,0,1-2.987,2.085,5.462,5.462,0,0,1-3.947-.471c-1.391-.777-2.938-2.036-3.251-3.673a6.631,6.631,0,0,1,.941-5,6.137,6.137,0,0,1,8.586-1.416A5.847,5.847,0,0,1,152.135,251.109Z" transform="translate(-2.894 -10.079)" fill="#9ca5c6"/>
    <path id="Path_6147" data-name="Path 6147" d="M161.653,255.992l-2.405,2.437a.824.824,0,0,0-1.062-.032.932.932,0,1,0,1.167,1.448.848.848,0,0,0,.163-1.09l2.434-2.467C162.139,256.1,161.843,255.8,161.653,255.992Zm-3.276,3.53c-.185-.139-.145-.523-.025-.7a.432.432,0,0,1,.7-.009.181.181,0,0,0,.018.016.178.178,0,0,0,.014.026C159.509,259.356,158.853,259.88,158.377,259.522Z" transform="translate(-15.51 -16.982)" fill="#9ca5c6"/>
    <path id="Path_6148" data-name="Path 6148" d="M147.367,252.477a5.3,5.3,0,0,0-2.494,3.648c-.063.262.341.374.4.111a4.886,4.886,0,0,1,2.3-3.4C147.817,252.713,147.605,252.35,147.367,252.477Z" transform="translate(-6.45 -14.55)" fill="#9ca5c6"/>
    <path id="Path_6149" data-name="Path 6149" d="M144.74,267.91a.21.21,0,0,0,0,.419A.21.21,0,0,0,144.74,267.91Z" transform="translate(-6.22 -25.358)" fill="#9ca5c6"/>
    <path id="Path_6150" data-name="Path 6150" d="M160.545,234.742l-.044-.6c-.02-.267-.439-.27-.419,0l.044.6C160.145,235.01,160.564,235.012,160.545,234.742Z" transform="translate(-17.086 -1.607)" fill="#9ca5c6"/>
    <path id="Path_6151" data-name="Path 6151" d="M164.2,234.463l-.016-.49c-.009-.269-.428-.271-.419,0,.005.163.011.327.016.49C163.787,234.732,164.206,234.734,164.2,234.463Z" transform="translate(-19.66 -1.49)" fill="#9ca5c6"/>
    <path id="Path_6152" data-name="Path 6152" d="M156.566,234.884a2.53,2.53,0,0,1-.019-.54c.017-.269-.4-.268-.419,0a3.045,3.045,0,0,0,.034.651C156.2,235.262,156.606,235.149,156.566,234.884Z" transform="translate(-14.319 -1.75)" fill="#9ca5c6"/>
  </g>
</svg>
