<svg id="Group_3960" data-name="Group 3960" xmlns="http://www.w3.org/2000/svg" width="27.059" height="11.822" viewBox="0 0 27.059 11.822">
  <path id="Path_371" data-name="Path 371" d="M50.664,70.428h.673v2.955h-.673a.591.591,0,0,1-.591-.591V71.019A.591.591,0,0,1,50.664,70.428Z" transform="translate(-50.073 -65.995)" fill="#6975a0"/>
  <path id="Path_372" data-name="Path 372" d="M85.161,70.428h-.673v2.955h.673a.684.684,0,0,0,.1-.009.592.592,0,0,0,.486-.582V71.019A.591.591,0,0,0,85.161,70.428Z" transform="translate(-58.693 -65.995)" fill="#6975a0"/>
  <rect id="Rectangle_1593" data-name="Rectangle 1593" width="9.945" height="2.956" transform="translate(8.557 4.433)" fill="#6975a0"/>
  <path id="Path_373" data-name="Path 373" d="M82.26,66.386H80.616a.572.572,0,0,0-.413.172v8.674a.591.591,0,0,0,.413.169H82.26a.591.591,0,0,0,.591-.591V66.977A.592.592,0,0,0,82.26,66.386Z" transform="translate(-57.62 -64.982)" fill="#6975a0"/>
  <path id="Path_374" data-name="Path 374" d="M77.874,64.513H76.1a.591.591,0,0,0-.517.305h0a.6.6,0,0,0-.073.286v10.64a.592.592,0,0,0,.591.591h1.773a.592.592,0,0,0,.591-.591V65.1A.592.592,0,0,0,77.874,64.513Z" transform="translate(-56.444 -64.513)" fill="#6975a0"/>
  <path id="Path_375" data-name="Path 375" d="M53.1,66.386a.591.591,0,0,0-.342.109h0a.556.556,0,0,0-.084.073.589.589,0,0,0-.164.409v7.832a.6.6,0,0,0,.035.2.592.592,0,0,0,.556.389h1.644a.585.585,0,0,0,.413-.169V66.555a.589.589,0,0,0-.413-.169Z" transform="translate(-50.684 -64.982)" fill="#6975a0"/>
  <path id="Path_376" data-name="Path 376" d="M59.159,64.513H57.387a.591.591,0,0,0-.509.291h0a.592.592,0,0,0-.082.3v10.64a.591.591,0,0,0,.591.591h1.773a.592.592,0,0,0,.591-.591V65.1A.591.591,0,0,0,59.159,64.513Z" transform="translate(-51.757 -64.513)" fill="#6975a0"/>
</svg>
