<svg xmlns="http://www.w3.org/2000/svg" xmlns:xlink="http://www.w3.org/1999/xlink" width="9" height="9" viewBox="0 0 9 9">
  <defs>
    <linearGradient id="linear-gradient" x1="0.5" x2="0.5" y2="1" gradientUnits="objectBoundingBox">
      <stop offset="0" stop-color="#2268fb"/>
      <stop offset="1" stop-color="#30dde5"/>
    </linearGradient>
  </defs>
  <path id="Path_189" data-name="Path 189" d="M2.813,5.625c.281,0,.394.169.169.394l-.844.844A3.368,3.368,0,0,0,4.5,7.875,3.4,3.4,0,0,0,7.875,4.95.569.569,0,0,1,9,5.063v.112A4.5,4.5,0,0,1,4.5,9,4.7,4.7,0,0,1,1.294,7.706l-.9.9C.169,8.831,0,8.719,0,8.438V5.906a.266.266,0,0,1,.281-.281Zm3.375-2.25c-.281,0-.394-.169-.169-.394l.844-.844A3.368,3.368,0,0,0,4.5,1.125,3.4,3.4,0,0,0,1.125,4.05a.535.535,0,0,1-.562.45A.531.531,0,0,1,0,3.938V3.825A4.5,4.5,0,0,1,4.5,0,4.7,4.7,0,0,1,7.706,1.294l.9-.9C8.831.169,9,.281,9,.563V3.094a.266.266,0,0,1-.281.281Z" fill-rule="evenodd" fill="url(#linear-gradient)"/>
</svg>
