<svg id="Component_4_5" data-name="Component 4 – 5" xmlns="http://www.w3.org/2000/svg" xmlns:xlink="http://www.w3.org/1999/xlink" width="22.29" height="16.36" viewBox="0 0 22.29 16.36">
  <defs>
    <linearGradient id="linear-gradient" x1="0.5" x2="0.5" y2="1" gradientUnits="objectBoundingBox">
      <stop offset="0" stop-color="#2268fb"/>
      <stop offset="1" stop-color="#30dde5"/>
    </linearGradient>
  </defs>
  <g id="Group_234" data-name="Group 234">
    <g id="Group_233" data-name="Group 233">
      <g id="Group_232" data-name="Group 232">
        <path id="Path_385" data-name="Path 385" d="M150.81,234.787v-.243a.951.951,0,0,1-.351-.741v-1a.951.951,0,0,1,.319-.714v-.572a.47.47,0,0,0-.165-.369,1.751,1.751,0,0,0-.537-.2,9.407,9.407,0,0,0-2.084-.161,8.634,8.634,0,0,0-2.313.205,1.551,1.551,0,0,0-.43.176.478.478,0,0,0-.146.352v.8a.449.449,0,0,0,.234.412v.688h-.116a1.28,1.28,0,0,0-1.152,1.377v6.465a1.411,1.411,0,0,0,.683,1.258,5.386,5.386,0,0,0,1.247.342,12.05,12.05,0,0,0,1.94.128c.354,0,.68-.016.975-.041V236.9A2.126,2.126,0,0,1,150.81,234.787Z" transform="translate(-144.07 -230.781)" fill="url(#linear-gradient)"/>
        <path id="Path_386" data-name="Path 386" d="M164.988,234.787v-.243a.951.951,0,0,0,.351-.741v-1a.951.951,0,0,0-.319-.714v-.572a.47.47,0,0,1,.165-.369,1.75,1.75,0,0,1,.537-.2,9.411,9.411,0,0,1,2.084-.161,8.631,8.631,0,0,1,2.312.205,1.551,1.551,0,0,1,.43.176.478.478,0,0,1,.146.352v.8a.449.449,0,0,1-.234.412v.688h.117a1.279,1.279,0,0,1,1.151,1.377v6.465a1.411,1.411,0,0,1-.683,1.258,5.386,5.386,0,0,1-1.247.342,12.05,12.05,0,0,1-1.939.128c-.353,0-.68-.016-.975-.041V236.9A2.127,2.127,0,0,0,164.988,234.787Z" transform="translate(-149.438 -230.781)" fill="url(#linear-gradient)"/>
        <path id="Path_387" data-name="Path 387" d="M162.85,237.279a1.72,1.72,0,0,0-1.72-1.719h-.174V234.7a.554.554,0,0,0,.351-.515v-1a.555.555,0,0,0-.247-.462,2.93,2.93,0,0,0-.8-.256,16.753,16.753,0,0,0-3.114-.2,15.4,15.4,0,0,0-3.457.256,2.616,2.616,0,0,0-.643.221.554.554,0,0,0-.218.441v1a.554.554,0,0,0,.35.515v.861H153a1.72,1.72,0,0,0-1.72,1.719v8.083a1.72,1.72,0,0,0,1.021,1.572,9.2,9.2,0,0,0,1.864.427,21.354,21.354,0,0,0,2.9.161,16.776,16.776,0,0,0,4.064-.44,1.72,1.72,0,0,0,1.72-1.719Zm-5.792,1.445a30.576,30.576,0,0,1,3.364.166.513.513,0,0,1,.456.51v3.754a.511.511,0,0,1-.383.5,14.162,14.162,0,0,1-3.437.356,15.612,15.612,0,0,1-3.577-.363.511.511,0,0,1-.392-.5V239.4a.511.511,0,0,1,.456-.509A33.7,33.7,0,0,1,157.057,238.724Z" transform="translate(-145.92 -231.162)" fill="url(#linear-gradient)"/>
      </g>
    </g>
  </g>
</svg>
